<?xml version="1.0" encoding="UTF-8" standalone="no"?>
<svg
   xmlns:dc="http://purl.org/dc/elements/1.1/"
   xmlns:cc="http://creativecommons.org/ns#"
   xmlns:rdf="http://www.w3.org/1999/02/22-rdf-syntax-ns#"
   xmlns:svg="http://www.w3.org/2000/svg"
   xmlns="http://www.w3.org/2000/svg"
   xmlns:sodipodi="http://sodipodi.sourceforge.net/DTD/sodipodi-0.dtd"
   xmlns:inkscape="http://www.inkscape.org/namespaces/inkscape"
   height="481"
   version="1.1"
   width="645"
   id="svg2"
   inkscape:version="0.48.4 r9939"
   sodipodi:docname="Рейдер.obj0001.svg">
  <metadata
     id="metadata142">
    <rdf:RDF>
      <cc:Work
         rdf:about="">
        <dc:format>image/svg+xml</dc:format>
        <dc:type
           rdf:resource="http://purl.org/dc/dcmitype/StillImage" />
      </cc:Work>
    </rdf:RDF>
  </metadata>
  <defs
     id="defs140" />
  <sodipodi:namedview
     pagecolor="#ffffff"
     bordercolor="#666666"
     borderopacity="1"
     objecttolerance="10"
     gridtolerance="10"
     guidetolerance="10"
     inkscape:pageopacity="0"
     inkscape:pageshadow="2"
     inkscape:window-width="1360"
     inkscape:window-height="705"
     id="namedview138"
     showgrid="false"
     inkscape:zoom="0.98128899"
     inkscape:cx="599.18933"
     inkscape:cy="157.40805"
     inkscape:window-x="-8"
     inkscape:window-y="-8"
     inkscape:window-maximized="1"
     inkscape:current-layer="svg2" />
  <path
     style="fill:#19aeff;fill-opacity:1;fill-rule:nonzero;stroke:none"
     d="m 235.28125,177.34375 c -1.0459,3.73293 0.0757,7.00747 -0.71875,10.65625 -0.0195,8.09664 0.13386,16.19396 0.53125,24.28125 14.71063,6.56593 29.34428,13.25903 44.09375,19.6875 1.04904,-1.42638 3.64469,-0.60534 5.15625,-2 2.00834,-1.58718 3.37866,-0.79918 5.375,0.34375 4.18006,2.98832 8.97589,-0.4779 13.09375,-2.375 -0.61998,-9.53506 0.88455,-19.48778 -1.09375,-28.78125 -3.52686,-2.90166 -7.47745,4.41922 -11.0625,0.53125 -3.92195,-2.43679 -8.06357,-0.69363 -11.75,1.375 -12.48078,-6.06478 -27.45847,-11.84703 -38.53125,-17.5625 2.50261,-1.01727 6.33717,-3.53276 2.15625,-5.21875 -2.04683,-0.90845 -6.8966,-4.47651 -7.25,-0.9375 z m 93.8125,1.6875 c -2.96831,0.93544 -5.71131,2.46173 -8.625,3.59375 1.11167,1.40524 5.46603,4.99171 5.3125,4.0625 -3.57982,0.88627 -5.64755,2.74347 -1.96875,5.125 2.4993,1.84803 8.35085,4.31709 8.03125,-1 -0.80037,-3.88856 1.03485,-6.63693 -0.125,-10.5625 -0.25829,-1.70121 -1.4568,-1.3944 -2.625,-1.21875 z"
     id="ts"
     inkscape:connector-curvature="0" />
  <path
     style="fill:#ff4141;fill-opacity:1;fill-rule:nonzero;stroke:none"
     d="m 151.65625,174.03125 c -2.56515,4.52558 2.21598,11.9906 -2.625,15.53125 -3.59065,1.09855 -8.31536,-2.97171 -10.78125,1.15625 -5.1734,3.44102 -14.63918,3.60567 -15.78125,11.09375 -0.075,2.42623 -0.49516,6.32784 3.09375,5.84375 3.8287,0.28438 6.04891,6.14331 1.21875,6.59375 -2.39007,0.92004 -4.54902,1.15127 -3.71875,3.90625 -0.94175,5.23757 -0.87441,11.40218 0.125,16.21875 3.96171,0.36363 8.84357,3.91777 6.21875,8.25 -1.07392,4.99003 6.86802,5.54102 7.84279,8.2805 -1.72025,3.74013 -0.373,9.68693 4.65721,9.4695 3.97854,2.46325 1.17129,7.81116 3.46875,10.84375 51.90331,22.47504 103.07552,47.04265 155.125,68.96875 4.89885,1.35803 8.56412,-3.83961 13.28125,-4.46875 4.50087,-1.55905 8.41725,-4.20055 11.5,-7.71875 1.56645,-0.83071 6.66871,-2.18156 3.34375,-4.15625 3.367,-0.5209 5.56734,-1.55483 8.49081,-3.20772 0.002,-2.94249 -0.54144,-3.74128 7.40441,-6.04228 -0.14036,-3.86844 -1.14841,-15.89462 -0.37132,-18.50186 -1.2127,-4.6569 0.5738,-1.44146 -5.4614,-2.27939 -3.30603,-1.78799 -1.46794,-5.77795 1.90625,-6.03125 2.34958,-0.4442 3.78771,-1.63111 2.84375,-4.0625 0.8323,-2.62117 2.31074,-7.04493 -2.21804,-7.04162 -18.02312,-7.07689 -31.61376,-18.95783 -49.27296,-26.54683 -4.11591,-2.96475 0.4713,-9.98707 -0.1849,-14.17959 0.26645,-3.55776 -5.15245,-3.73813 -9.97995,-3.98016 -43.32865,-19.28197 -86.64107,-39.56985 -130.1254,-57.9393 z m 174.67744,30.38559 c 0.35441,3.34573 -6.63081,6.92178 -4.45233,8.85276 6.37615,2.91857 31.73901,11.50887 38.16763,14.35725 1.47454,4.84042 -19.8024,-4.69052 -25.84772,-3.9661 -7.0524,3.33033 0.0844,6.69756 -6.81938,7.25053 -3.4823,1.26976 11.37522,8.59883 14.96186,8.71372 10.90665,4.50097 21.58686,9.69879 32.4375,14.40625 -0.16124,9.50977 -0.21326,19.0215 -0.375,28.53125 -9.35153,4.04351 -20.91112,8.56734 -30.09559,13.07537 9.22096,5.15157 20.30232,8.85056 30.44118,13.50551 6.99619,-2.95442 15.60435,-6.34059 21.49816,-10.95588 1.70306,-3.59776 7.15067,-3.16865 7.75,-7.375 1.8554,-2.48935 7.64177,-2.00696 6.75,-6.28125 3.38453,-0.72482 8.35142,-2.86162 6.4375,-7.21875 -0.34914,-4.36361 1.21798,-10.12349 -0.96875,-13.65625 -2.09575,-2.2142 -9.27789,-2.49161 -5.5,-6.09375 1.56245,-2.76117 7.92065,-1.94849 6.25,-6.09375 0.54339,-3.35305 -0.003,-6.6194 -3.625,-7.59375 -24.71854,-10.95748 -61.89401,-28.9977 -87.01006,-39.45816 z"
     id="hs"
     inkscape:connector-curvature="0"
     sodipodi:nodetypes="cccccccccccccccccccccccccccccccccccccccccccccc" />
  <path
     style="fill:#b50000;fill-opacity:1;fill-rule:nonzero;stroke:none"
     d="m 324.96875,223.46875 c -6.035,1.48191 -11.603,6.68012 -17.5,6.78125 -3.85287,-2.83666 -8.88312,-2.79595 -12.53125,0.15625 -4.12864,0.70205 -7.4523,-4.88759 -11.46875,-1.5625 -1.53975,0.68576 -3.56027,1.98665 -0.75,2.53125 4.26397,1.04576 5.04886,5.51804 4.16186,9.24989 0.66519,4.54415 -1.9737,11.89831 4.21314,12.87511 17.08886,7.62689 34.19438,15.34868 51.21875,22.96875 4.29765,3.52579 2.95212,12.76471 -3.46875,12.90625 -2.88149,1.27004 -0.60473,4.70014 1.8125,4.84375 5.55135,2.05552 10.30475,-3.59862 15.52058,-4.64364 5.726,-2.88389 12.94957,-4.76188 17.63567,-8.57511 0.32873,-8.76001 -0.16282,-17.52176 -0.28125,-26.28125 -11.83094,-5.02846 -23.45045,-11.04277 -35.5,-15.8125 -2.00695,-3.63271 0.75199,-7.29419 3.9375,-8.875 -5.53983,-1.86298 -10.58088,-5.42485 -16.28125,-6.78125 l -0.71875,0.21875 z"
     id="hf"
     inkscape:connector-curvature="0" />
  <path
     style="fill:#dc0000;fill-opacity:1;fill-rule:nonzero;stroke:none"
     d="m 202.09758,150.4648 c -16.05192,6.89368 -32.14136,13.84376 -47.9569,21.30073 -0.66537,0.27517 -2.45624,1.14506 -0.82835,1.58193 27.3551,12.41208 54.74989,24.73758 82.18008,36.98259 0.81986,-0.86751 0.12173,-2.83799 0.38356,-4.07577 0.0748,-9.70911 -0.0384,-19.41847 -0.057,-29.12766 3.81547,-2.33221 8.31721,-3.49307 12.06988,-5.87731 -0.0262,-1.22281 -2.28608,-1.06944 -3.03097,-1.81378 -14.24756,-6.29531 -28.38243,-12.93153 -42.71522,-18.98199 l -0.045,0.0113 z"
     id="hr"
     inkscape:connector-curvature="0"
     inkscape:label="#path3177" />
  <path
     style="fill:#0084c8;fill-opacity:1;fill-rule:nonzero;stroke:none"
     d="m 272.46875,158.78125 c -6.62168,2.98063 -13.56168,5.46084 -19.875,9.03125 -0.21711,1.17221 2.35126,1.14055 3.03125,1.875 5.48186,2.36165 10.88483,5.22926 16.46875,7.15625 6.92078,-2.80191 13.92673,-5.68445 20.5625,-9.0625 -1.11301,-1.32136 -3.44375,-1.67922 -4.96875,-2.625 -5.0524,-2.14608 -10.04597,-4.64081 -15.21875,-6.375 z m 14.375,2.84375 c -0.65839,0.12299 -2.80913,0.82719 -1.40625,1.53125 2.81393,1.89237 6.51425,2.41318 9,4.71875 0.77529,2.80567 0.27578,5.93628 0.15625,8.8125 -0.62473,1.37785 -2.78583,1.36931 -3.9375,2.25 -6.24923,2.66053 -12.37494,5.92333 -18.8125,7.875 -7.10986,-2.95714 -14.31369,-6.13785 -21.09375,-9.6875 -0.41665,-1.84247 0.007,-3.8032 -0.40625,-5.625 -4.11092,1.39442 -8.18926,3.49463 -12.15625,5.375 0.2181,1.26466 2.30636,1.44771 3.25,2.15625 0.54524,0.43443 2.17799,0.8046 2.03125,1.46875 -1.67402,1.23227 -3.94086,1.7438 -5.71875,2.90625 0.85499,1.18213 2.90734,1.45027 4.1875,2.28125 12.31283,5.66115 24.6933,11.24525 37.09375,16.65625 2.55041,-0.93984 5.1047,-2.6197 7.65625,-3.0625 2.33517,0.86814 4.56758,2.42512 7.03125,2.78125 2.52737,-0.66874 4.92193,-2.40471 7.375,-2.78125 2.4809,0.88398 4.86566,2.54086 7.53125,2.6875 6.74456,-2.85481 13.42728,-5.88114 20.125,-8.84375 -1.30804,-1.50535 -4.20222,-1.78709 -5.78125,-3.375 1.68074,-1.41409 3.85853,-2.05161 5.8125,-3.0625 -0.84021,-1.26657 -3.13826,-1.54244 -4.5,-2.5 -0.62445,-0.25698 -1.82714,-1.0069 -0.5625,-1.40625 1.53139,-1.17711 3.87316,-1.4227 5.09375,-2.875 -6.32433,-3.29843 -13.15877,-6.00995 -19.6875,-9.0625 -7.21618,-3.04286 -14.21963,-6.78049 -21.65625,-9.21875 -0.2074,-0.0368 -0.41604,-0.018 -0.625,0 z m -35.375,7 -0.28125,0.1875 c 0.1564,2.70179 -0.0407,5.51834 0.3125,8.15625 6.65814,2.89179 13.2437,6.26017 19.96875,8.8125 0.53267,-2.61283 0.33223,-5.48071 0.1875,-8.09375 -6.76169,-2.94902 -13.45131,-6.05598 -20.1875,-9.0625 z m 41.875,0.0312 c -6.98922,2.97187 -14.07032,5.98742 -20.875,9.25 0.23908,2.55738 -0.46639,5.38763 0.34375,7.8125 1.78703,-0.0441 3.49774,-1.51679 5.25,-2.03125 5.28918,-2.41222 10.79506,-4.56636 15.9375,-7.15625 -0.12945,-2.57564 -0.15044,-5.19142 -0.40625,-7.75 -0.0383,-0.0741 -0.15905,-0.16925 -0.25,-0.125 z"
     id="tr"
     inkscape:connector-curvature="0"
     inkscape:label="#path3189" />
  <path
     style="fill:#005c94;fill-opacity:1;fill-rule:nonzero;stroke:none"
     d="m 326.4375,195 c -6.5774,2.17655 -13.12559,7.24332 -19.6875,7.71875 -2.14092,-1.14897 -6.734,-4.08825 -5.31675,0.81229 0.22621,7.79175 -0.803,16.49533 1.00425,23.71896 3.5318,2.2376 7.77511,3.02952 11.28537,0.2112 5.83336,-1.93872 11.69915,-7.90083 17.55356,-2.99885 9.24444,3.85328 18.52883,9.06142 27.75482,11.91265 2.77281,-1.52054 8.22494,-1.72496 6.40625,-6.28125 0.81515,-3.46311 -0.52899,-6.3909 -4.25,-6.9375 -10.54927,-5.0812 -21.21746,-9.40419 -31.78125,-14.53125 0.0299,-4.77437 1.50283,-10.37331 -0.40625,-14.71875 -0.85417,0.36458 -1.70833,0.72917 -2.5625,1.09375 z"
     id="tf"
     inkscape:connector-curvature="0" />
  <g
     id="RenderLayer_LineSet"
     inkscape:groupmode="lineset"
     inkscape:label="RenderLayer_LineSet">
    <g
       id="strokes"
       inkscape:groupmode="layer"
       inkscape:label="strokes">
      <path
         d=" M 332.800, 272.659 337.280, 270.678 344.647, 267.418 352.015, 264.159 359.382, 260.900 366.718, 257.655 374.085, 254.395 "
         fill="none"
         stroke="rgb(0, 0, 0)"
         stroke-linecap="butt"
         stroke-linejoin="round"
         stroke-opacity="1.0"
         stroke-width="0.9000000953674316"
         id="path6" />
      <path
         d=" M 343.401, 295.672 344.109, 295.359 344.980, 294.973 352.348, 291.714 359.715, 288.455 366.050, 285.652 367.051, 285.210 374.418, 281.950 374.308, 272.792 374.196, 263.594 374.085, 254.395 364.961, 250.302 355.837, 246.210 346.713, 242.117 338.320, 238.352 "
         fill="none"
         stroke="rgb(0, 0, 0)"
         stroke-linecap="butt"
         stroke-linejoin="round"
         stroke-opacity="1.0"
         stroke-width="0.9000000953674316"
         id="path8" />
      <path
         d=" M 338.032, 238.223 342.227, 240.105 342.235, 240.108 351.359, 244.201 360.483, 248.294 369.607, 252.387 374.085, 254.395 366.926, 251.184 359.798, 247.986 350.674, 243.894 342.235, 240.108 342.167, 240.078 342.113, 240.053 338.320, 238.352 "
         fill="none"
         stroke="rgb(0, 0, 0)"
         stroke-linecap="butt"
         stroke-linejoin="round"
         stroke-opacity="1.0"
         stroke-width="0.9000000953674316"
         id="path10" />
      <path
         d=" M 359.798, 247.986 359.755, 247.967 352.639, 244.775 343.514, 240.682 340.900, 239.510 340.876, 239.499 338.320, 238.352 "
         fill="none"
         stroke="rgb(0, 0, 0)"
         stroke-linecap="butt"
         stroke-linejoin="round"
         stroke-opacity="1.0"
         stroke-width="0.9000000953674316"
         id="path12" />
      <path
         d=" M 337.967, 232.771 338.001, 235.625 338.032, 238.223 338.032, 238.223 338.036, 238.478 338.112, 244.823 330.777, 248.068 323.409, 251.327 316.042, 254.587 308.674, 257.846 304.195, 259.828 "
         fill="none"
         stroke="rgb(0, 0, 0)"
         stroke-linecap="butt"
         stroke-linejoin="round"
         stroke-opacity="1.0"
         stroke-width="0.9000000953674316"
         id="path14" />
      <path
         d=" M 293.847, 230.325 301.006, 233.536 308.165, 236.748 "
         fill="none"
         stroke="rgb(0, 0, 0)"
         stroke-linecap="butt"
         stroke-linejoin="round"
         stroke-opacity="1.0"
         stroke-width="0.9000000953674316"
         id="path16" />
      <path
         d=" M 301.117, 242.694 308.276, 245.906 315.611, 242.661 315.501, 233.503 308.341, 230.291 315.709, 227.032 323.076, 223.772 324.610, 223.094 324.610, 223.094 325.977, 222.489 "
         fill="none"
         stroke="rgb(0, 0, 0)"
         stroke-linecap="butt"
         stroke-linejoin="round"
         stroke-opacity="1.0"
         stroke-width="0.9000000953674316"
         id="path18" />
      <path
         d=" M 338.251, 232.645 338.320, 238.352 338.036, 238.478 "
         fill="none"
         stroke="rgb(0, 0, 0)"
         stroke-linecap="butt"
         stroke-linejoin="round"
         stroke-opacity="1.0"
         stroke-width="0.9000000953674316"
         id="path20" />
      <path
         d=" M 150.611, 172.638 157.770, 175.849 164.898, 179.046 172.057, 182.258 179.216, 185.469 186.376, 188.681 193.503, 191.878 195.517, 192.781 200.663, 195.089 207.822, 198.301 214.981, 201.512 222.109, 204.710 229.268, 207.921 236.427, 211.132 243.587, 214.344 250.746, 217.555 257.874, 220.753 265.033, 223.964 272.192, 227.175 279.320, 230.373 279.351, 230.387 286.479, 233.584 "
         fill="none"
         stroke="rgb(0, 0, 0)"
         stroke-linecap="butt"
         stroke-linejoin="round"
         stroke-opacity="1.0"
         stroke-width="0.9000000953674316"
         id="path22" />
      <path
         d=" M 286.702, 251.981 286.701, 251.941 286.590, 242.742 286.479, 233.584 293.847, 230.325 293.957, 239.483 294.069, 248.681 294.149, 255.322 "
         fill="none"
         stroke="rgb(0, 0, 0)"
         stroke-linecap="butt"
         stroke-linejoin="round"
         stroke-opacity="1.0"
         stroke-width="0.9000000953674316"
         id="path24" />
      <path
         d=" M 338.004, 212.171 337.988, 210.797 330.860, 207.600 330.828, 207.586 "
         fill="none"
         stroke="rgb(0, 0, 0)"
         stroke-linecap="butt"
         stroke-linejoin="round"
         stroke-opacity="1.0"
         stroke-width="0.9000000953674316"
         id="path26" />
      <path
         d=" M 249.684, 171.187 245.012, 169.091 237.884, 165.894 230.725, 162.682 223.565, 159.471 217.139, 156.588 216.406, 156.260 215.719, 155.951 209.278, 153.062 202.119, 149.851 194.752, 153.110 187.416, 156.355 180.049, 159.615 172.681, 162.874 165.314, 166.133 157.978, 169.378 150.611, 172.638 150.722, 181.796 150.833, 190.994 150.833, 191.035 "
         fill="none"
         stroke="rgb(0, 0, 0)"
         stroke-linecap="butt"
         stroke-linejoin="round"
         stroke-opacity="1.0"
         stroke-width="0.9000000953674316"
         id="path28" />
      <path
         d=" M 301.117, 242.694 301.228, 251.893 301.308, 258.533 "
         fill="none"
         stroke="rgb(0, 0, 0)"
         stroke-linecap="butt"
         stroke-linejoin="round"
         stroke-opacity="1.0"
         stroke-width="0.9000000953674316"
         id="path30" />
      <path
         d=" M 179.438, 203.826 186.597, 207.037 193.654, 210.203 193.726, 210.235 "
         fill="none"
         stroke="rgb(0, 0, 0)"
         stroke-linecap="butt"
         stroke-linejoin="round"
         stroke-opacity="1.0"
         stroke-width="0.9000000953674316"
         id="path32" />
      <path
         d=" M 208.044, 216.657 210.058, 217.561 219.182, 221.653 222.331, 223.066 229.490, 226.277 236.649, 229.489 227.525, 225.396 218.401, 221.303 210.058, 217.561 208.044, 216.657 "
         fill="none"
         stroke="rgb(0, 0, 0)"
         stroke-linecap="butt"
         stroke-linejoin="round"
         stroke-opacity="1.0"
         stroke-width="0.9000000953674316"
         id="path34" />
      <path
         d=" M 315.501, 233.503 308.418, 236.636 308.165, 236.748 308.199, 239.561 308.276, 245.906 "
         fill="none"
         stroke="rgb(0, 0, 0)"
         stroke-linecap="butt"
         stroke-linejoin="round"
         stroke-opacity="1.0"
         stroke-width="0.9000000953674316"
         id="path36" />
      <path
         d=" M 343.470, 230.336 342.103, 230.941 338.251, 232.645 337.967, 232.771 337.714, 232.883 330.810, 229.786 330.555, 229.671 330.507, 225.739 330.507, 225.739 330.492, 224.515 "
         fill="none"
         stroke="rgb(0, 0, 0)"
         stroke-linecap="butt"
         stroke-linejoin="round"
         stroke-opacity="1.0"
         stroke-width="0.9000000953674316"
         id="path38" />
      <path
         d=" M 193.726, 210.235 202.850, 214.327 208.044, 216.657 198.920, 212.565 193.654, 210.203 192.305, 209.597 183.180, 205.504 179.438, 203.826 188.562, 207.919 192.305, 209.597 193.726, 210.235 "
         fill="none"
         stroke="rgb(0, 0, 0)"
         stroke-linecap="butt"
         stroke-linejoin="round"
         stroke-opacity="1.0"
         stroke-width="0.9000000953674316"
         id="path40" />
      <path
         d=" M 338.320, 238.352 342.106, 240.050 342.159, 240.074 342.227, 240.105 351.351, 244.198 359.755, 247.967 366.926, 251.184 "
         fill="none"
         stroke="rgb(0, 0, 0)"
         stroke-linecap="butt"
         stroke-linejoin="round"
         stroke-opacity="1.0"
         stroke-width="0.9000000953674316"
         id="path42" />
      <path
         d=" M 129.037, 212.753 121.955, 215.886 122.066, 225.085 122.177, 234.283 129.336, 237.495 129.447, 246.653 136.606, 249.864 136.717, 259.062 143.845, 262.260 143.951, 271.014 151.110, 274.226 158.269, 277.437 165.428, 280.649 172.556, 283.846 179.715, 287.057 186.875, 290.269 194.034, 293.480 201.162, 296.678 208.321, 299.889 215.480, 303.100 222.639, 306.312 229.799, 309.523 236.926, 312.721 244.086, 315.932 251.245, 319.143 258.404, 322.355 265.532, 325.552 272.691, 328.764 279.850, 331.975 287.010, 335.186 294.137, 338.384 301.297, 341.595 308.503, 338.407 315.870, 335.148 323.238, 331.889 323.209, 329.479 "
         fill="none"
         stroke="rgb(0, 0, 0)"
         stroke-linecap="butt"
         stroke-linejoin="round"
         stroke-opacity="1.0"
         stroke-width="0.9000000953674316"
         id="path44" />
      <path
         d=" M 301.191, 332.841 308.350, 336.052 315.556, 332.864 320.518, 330.669 322.924, 329.605 323.209, 329.479 330.291, 326.345 330.257, 323.492 "
         fill="none"
         stroke="rgb(0, 0, 0)"
         stroke-linecap="butt"
         stroke-linejoin="round"
         stroke-opacity="1.0"
         stroke-width="0.9000000953674316"
         id="path46" />
      <path
         d=" M 337.305, 317.545 337.339, 320.358 330.257, 323.492 329.972, 323.618 327.071, 324.901 323.174, 326.625 322.604, 326.877 317.298, 329.224 315.398, 330.065 311.459, 328.298 308.239, 326.853 308.274, 329.707 308.350, 336.052 "
         fill="none"
         stroke="rgb(0, 0, 0)"
         stroke-linecap="butt"
         stroke-linejoin="round"
         stroke-opacity="1.0"
         stroke-width="0.9000000953674316"
         id="path48" />
      <path
         d=" M 301.297, 341.595 301.191, 332.841 "
         fill="none"
         stroke="rgb(0, 0, 0)"
         stroke-linecap="butt"
         stroke-linejoin="round"
         stroke-opacity="1.0"
         stroke-width="0.9000000953674316"
         id="path50" />
      <path
         d=" M 336.972, 289.950 336.999, 292.169 337.007, 292.803 343.401, 295.672 344.166, 296.015 344.277, 305.213 344.388, 314.412 337.305, 317.545 337.020, 317.671 334.165, 318.934 330.223, 320.678 329.653, 320.930 323.897, 323.477 323.140, 323.811 322.447, 324.118 321.682, 323.775 318.462, 322.331 315.288, 320.907 315.322, 323.720 315.356, 326.574 315.398, 330.065 "
         fill="none"
         stroke="rgb(0, 0, 0)"
         stroke-linecap="butt"
         stroke-linejoin="round"
         stroke-opacity="1.0"
         stroke-width="0.9000000953674316"
         id="path52" />
      <path
         d=" M 322.225, 305.721 322.336, 314.920 322.370, 317.774 322.404, 320.587 322.439, 323.441 322.447, 324.118 "
         fill="none"
         stroke="rgb(0, 0, 0)"
         stroke-linecap="butt"
         stroke-linejoin="round"
         stroke-opacity="1.0"
         stroke-width="0.9000000953674316"
         id="path54" />
      <path
         d=" M 121.955, 215.886 129.114, 219.098 129.037, 212.753 129.003, 209.899 121.843, 206.688 121.733, 197.530 128.939, 194.342 136.306, 191.082 143.674, 187.823 150.833, 191.035 150.833, 191.035 "
         fill="none"
         stroke="rgb(0, 0, 0)"
         stroke-linecap="butt"
         stroke-linejoin="round"
         stroke-opacity="1.0"
         stroke-width="0.9000000953674316"
         id="path56" />
      <path
         d=" M 337.007, 292.803 329.639, 296.063 322.271, 299.322 316.515, 301.869 315.065, 302.510 "
         fill="none"
         stroke="rgb(0, 0, 0)"
         stroke-linecap="butt"
         stroke-linejoin="round"
         stroke-opacity="1.0"
         stroke-width="0.9000000953674316"
         id="path58" />
      <path
         d=" M 286.702, 251.981 293.861, 255.192 294.149, 255.322 301.020, 258.404 301.308, 258.533 304.195, 259.828 308.179, 261.615 315.307, 264.813 322.466, 268.024 329.626, 271.235 332.800, 272.659 336.785, 274.447 343.944, 277.658 344.055, 286.816 336.972, 289.950 336.687, 290.076 334.494, 291.046 329.319, 293.335 322.807, 296.216 322.113, 296.523 314.954, 293.311 315.050, 301.211 315.065, 302.510 322.225, 305.721 329.431, 302.533 336.798, 299.274 344.166, 296.015 "
         fill="none"
         stroke="rgb(0, 0, 0)"
         stroke-linecap="butt"
         stroke-linejoin="round"
         stroke-opacity="1.0"
         stroke-width="0.9000000953674316"
         id="path60" />
      <path
         d=" M 322.003, 287.365 314.844, 284.153 307.684, 280.942 300.525, 277.731 293.366, 274.519 286.238, 271.322 279.079, 268.110 271.920, 264.899 264.760, 261.688 257.633, 258.490 250.473, 255.279 243.314, 252.067 236.155, 248.856 229.027, 245.659 221.868, 242.447 214.709, 239.236 207.549, 236.024 200.390, 232.813 193.262, 229.616 186.103, 226.404 178.944, 223.193 171.785, 219.981 164.657, 216.784 157.498, 213.573 151.071, 210.690 150.338, 210.361 149.605, 210.032 143.179, 207.150 142.446, 206.821 136.051, 203.953 128.892, 200.741 121.733, 197.530 "
         fill="none"
         stroke="rgb(0, 0, 0)"
         stroke-linecap="butt"
         stroke-linejoin="round"
         stroke-opacity="1.0"
         stroke-width="0.9000000953674316"
         id="path62" />
      <path
         d=" M 343.944, 277.658 336.576, 280.918 329.209, 284.177 324.160, 286.410 322.003, 287.365 322.037, 290.178 322.113, 296.523 "
         fill="none"
         stroke="rgb(0, 0, 0)"
         stroke-linecap="butt"
         stroke-linejoin="round"
         stroke-opacity="1.0"
         stroke-width="0.9000000953674316"
         id="path64" />
      <path
         d=" M 150.510, 191.177 150.837, 191.323 150.837, 191.323 159.968, 195.400 169.099, 199.477 178.230, 203.553 187.362, 207.630 192.035, 209.717 201.166, 213.793 210.060, 217.764 219.191, 221.841 220.019, 222.210 227.164, 225.400 236.295, 229.477 237.066, 229.821 246.197, 233.898 255.329, 237.974 264.460, 242.051 273.591, 246.128 282.723, 250.205 286.701, 251.981 286.700, 251.980 286.699, 251.980 279.574, 248.784 272.414, 245.572 265.255, 242.361 258.096, 239.149 250.968, 235.952 243.809, 232.741 237.184, 229.769 236.650, 229.529 229.490, 226.318 227.305, 225.338 222.331, 223.106 220.177, 222.140 215.203, 219.909 210.058, 217.601 208.044, 216.698 200.885, 213.486 193.726, 210.275 192.260, 209.617 186.598, 207.078 179.439, 203.866 172.279, 200.655 165.120, 197.443 157.992, 194.246 150.833, 191.035 "
         fill="none"
         stroke="rgb(0, 0, 0)"
         stroke-linecap="butt"
         stroke-linejoin="round"
         stroke-opacity="1.0"
         stroke-width="0.9000000953674316"
         id="path66" />
      <path
         d=" M 344.109, 295.359 346.141, 296.270 353.300, 299.482 360.459, 302.693 367.587, 305.890 374.746, 309.102 382.114, 305.842 389.481, 302.583 396.687, 299.395 396.658, 296.985 "
         fill="none"
         stroke="rgb(0, 0, 0)"
         stroke-linecap="butt"
         stroke-linejoin="round"
         stroke-opacity="1.0"
         stroke-width="0.9000000953674316"
         id="path68" />
      <path
         d=" M 374.640, 300.347 381.800, 303.559 389.167, 300.299 393.968, 298.175 396.535, 297.040 396.658, 296.985 403.741, 293.852 403.706, 290.998 "
         fill="none"
         stroke="rgb(0, 0, 0)"
         stroke-linecap="butt"
         stroke-linejoin="round"
         stroke-opacity="1.0"
         stroke-width="0.9000000953674316"
         id="path70" />
      <path
         d=" M 410.755, 285.052 410.789, 287.865 403.706, 290.998 403.583, 291.053 400.521, 292.408 396.624, 294.131 396.215, 294.312 390.748, 296.731 388.848, 297.571 384.909, 295.805 381.689, 294.360 381.723, 297.214 381.800, 303.559 "
         fill="none"
         stroke="rgb(0, 0, 0)"
         stroke-linecap="butt"
         stroke-linejoin="round"
         stroke-opacity="1.0"
         stroke-width="0.9000000953674316"
         id="path72" />
      <path
         d=" M 374.746, 309.102 374.640, 300.347 "
         fill="none"
         stroke="rgb(0, 0, 0)"
         stroke-linecap="butt"
         stroke-linejoin="round"
         stroke-opacity="1.0"
         stroke-width="0.9000000953674316"
         id="path74" />
      <path
         d=" M 410.421, 257.456 410.456, 260.310 417.615, 263.521 417.726, 272.720 417.837, 281.918 410.755, 285.052 410.631, 285.106 407.614, 286.441 403.672, 288.185 403.264, 288.365 397.346, 290.983 396.590, 291.318 395.896, 291.625 395.132, 291.282 391.912, 289.837 388.737, 288.413 388.771, 291.227 388.806, 294.081 388.848, 297.571 "
         fill="none"
         stroke="rgb(0, 0, 0)"
         stroke-linecap="butt"
         stroke-linejoin="round"
         stroke-opacity="1.0"
         stroke-width="0.9000000953674316"
         id="path76" />
      <path
         d=" M 395.674, 273.228 395.785, 282.426 395.820, 285.280 395.854, 288.094 395.888, 290.947 395.896, 291.625 "
         fill="none"
         stroke="rgb(0, 0, 0)"
         stroke-linecap="butt"
         stroke-linejoin="round"
         stroke-opacity="1.0"
         stroke-width="0.9000000953674316"
         id="path78" />
      <path
         d=" M 410.456, 260.310 403.250, 263.498 395.882, 266.757 388.515, 270.017 "
         fill="none"
         stroke="rgb(0, 0, 0)"
         stroke-linecap="butt"
         stroke-linejoin="round"
         stroke-opacity="1.0"
         stroke-width="0.9000000953674316"
         id="path80" />
      <path
         d=" M 330.813, 206.328 331.545, 206.656 338.705, 209.867 345.864, 213.079 353.023, 216.290 360.151, 219.488 367.310, 222.699 374.469, 225.910 381.629, 229.122 388.757, 232.319 395.916, 235.531 403.075, 238.742 410.234, 241.953 417.393, 245.165 417.504, 254.323 410.421, 257.456 410.298, 257.511 402.931, 260.770 395.563, 264.029 388.404, 260.818 388.515, 270.017 395.674, 273.228 403.042, 269.969 410.409, 266.709 417.615, 263.521 "
         fill="none"
         stroke="rgb(0, 0, 0)"
         stroke-linecap="butt"
         stroke-linejoin="round"
         stroke-opacity="1.0"
         stroke-width="0.9000000953674316"
         id="path82" />
      <path
         d=" M 342.113, 240.053 345.480, 241.564 352.639, 244.775 359.798, 247.986 366.926, 251.184 374.085, 254.395 364.961, 250.302 355.837, 246.210 346.713, 242.117 342.167, 240.078 "
         fill="none"
         stroke="rgb(0, 0, 0)"
         stroke-linecap="butt"
         stroke-linejoin="round"
         stroke-opacity="1.0"
         stroke-width="0.9000000953674316"
         id="path84" />
      <path
         d=" M 250.717, 170.399 245.729, 168.161 238.570, 164.950 231.442, 161.753 224.283, 158.541 217.123, 155.330 215.719, 155.951 "
         fill="none"
         stroke="rgb(0, 0, 0)"
         stroke-linecap="butt"
         stroke-linejoin="round"
         stroke-opacity="1.0"
         stroke-width="0.9000000953674316"
         id="path86" />
      <path
         d=" M 417.393, 245.165 410.187, 248.353 402.820, 251.612 395.452, 254.871 "
         fill="none"
         stroke="rgb(0, 0, 0)"
         stroke-linecap="butt"
         stroke-linejoin="round"
         stroke-opacity="1.0"
         stroke-width="0.9000000953674316"
         id="path88" />
      <path
         d=" M 342.103, 230.941 345.369, 232.406 352.528, 235.617 359.688, 238.828 366.815, 242.026 373.975, 245.237 381.134, 248.449 388.293, 251.660 395.452, 254.871 395.486, 257.685 395.563, 264.029 "
         fill="none"
         stroke="rgb(0, 0, 0)"
         stroke-linecap="butt"
         stroke-linejoin="round"
         stroke-opacity="1.0"
         stroke-width="0.9000000953674316"
         id="path90" />
      <path
         d=" M 358.411, 227.889 358.522, 237.088 "
         fill="none"
         stroke="rgb(0, 0, 0)"
         stroke-linecap="butt"
         stroke-linejoin="round"
         stroke-opacity="1.0"
         stroke-width="0.9000000953674316"
         id="path92" />
      <path
         d=" M 325.977, 222.489 329.916, 224.256 330.492, 224.515 330.748, 224.629 336.311, 227.125 337.044, 227.453 337.652, 227.726 337.907, 227.841 338.195, 227.970 343.470, 230.336 344.203, 230.665 351.363, 233.876 358.522, 237.088 365.889, 233.828 365.778, 224.630 358.619, 221.419 351.460, 218.207 344.301, 214.996 338.004, 212.171 337.173, 211.798 336.454, 211.476 330.557, 208.831 330.302, 208.716 330.013, 208.587 329.294, 208.264 323.398, 205.619 323.142, 205.505 322.854, 205.376 315.487, 208.635 315.598, 217.833 322.757, 221.045 325.977, 222.489 "
         fill="none"
         stroke="rgb(0, 0, 0)"
         stroke-linecap="butt"
         stroke-linejoin="round"
         stroke-opacity="1.0"
         stroke-width="0.9000000953674316"
         id="path94" />
      <path
         d=" M 365.778, 224.630 358.411, 227.889 351.251, 224.678 344.955, 221.854 344.092, 221.466 338.084, 218.771 336.933, 218.255 330.637, 215.431 330.381, 215.316 329.805, 215.058 329.086, 214.735 323.222, 212.105 322.646, 211.846 315.487, 208.635 "
         fill="none"
         stroke="rgb(0, 0, 0)"
         stroke-linecap="butt"
         stroke-linejoin="round"
         stroke-opacity="1.0"
         stroke-width="0.9000000953674316"
         id="path96" />
      <path
         d=" M 243.462, 180.318 236.380, 183.451 236.352, 183.463 236.352, 183.463 236.352, 183.464 236.306, 183.484 236.305, 183.484 236.095, 183.577 236.203, 192.545 236.203, 192.545 236.205, 192.735 236.316, 201.934 236.427, 211.132 243.587, 214.344 250.715, 217.541 257.874, 220.753 265.033, 223.964 272.192, 227.175 279.321, 230.372 279.322, 230.372 286.688, 227.113 293.847, 230.325 301.182, 227.080 308.341, 230.291 314.387, 227.616 314.387, 227.616 315.709, 227.032 323.076, 223.772 324.610, 223.094 324.610, 223.094 325.977, 222.489 "
         fill="none"
         stroke="rgb(0, 0, 0)"
         stroke-linecap="butt"
         stroke-linejoin="round"
         stroke-opacity="1.0"
         stroke-width="0.9000000953674316"
         id="path98" />
      <path
         d=" M 330.302, 208.716 330.291, 207.824 330.285, 207.342 330.285, 207.342 330.270, 206.084 330.222, 202.116 330.111, 192.958 323.207, 189.861 322.952, 189.747 "
         fill="none"
         stroke="rgb(0, 0, 0)"
         stroke-linecap="butt"
         stroke-linejoin="round"
         stroke-opacity="1.0"
         stroke-width="0.9000000953674316"
         id="path100" />
      <path
         d=" M 308.008, 202.736 314.054, 200.061 315.376, 199.477 315.459, 199.440 322.744, 196.217 323.029, 196.091 323.281, 195.980 330.111, 192.958 "
         fill="none"
         stroke="rgb(0, 0, 0)"
         stroke-linecap="butt"
         stroke-linejoin="round"
         stroke-opacity="1.0"
         stroke-width="0.9000000953674316"
         id="path102" />
      <path
         d=" M 300.849, 199.525 300.960, 208.683 301.006, 212.507 301.006, 212.508 301.071, 217.881 301.182, 227.080 "
         fill="none"
         stroke="rgb(0, 0, 0)"
         stroke-linecap="butt"
         stroke-linejoin="round"
         stroke-opacity="1.0"
         stroke-width="0.9000000953674316"
         id="path104" />
      <path
         d=" M 308.341, 230.291 308.230, 221.093 308.165, 215.717 308.165, 215.717 308.119, 211.894 308.008, 202.736 300.849, 199.525 293.514, 202.770 "
         fill="none"
         stroke="rgb(0, 0, 0)"
         stroke-linecap="butt"
         stroke-linejoin="round"
         stroke-opacity="1.0"
         stroke-width="0.9000000953674316"
         id="path106" />
      <path
         d=" M 293.847, 230.325 293.736, 221.126 293.625, 211.928 293.591, 209.180 293.591, 209.180 293.514, 202.770 286.355, 199.558 "
         fill="none"
         stroke="rgb(0, 0, 0)"
         stroke-linecap="butt"
         stroke-linejoin="round"
         stroke-opacity="1.0"
         stroke-width="0.9000000953674316"
         id="path108" />
      <path
         d=" M 278.987, 202.818 279.200, 202.723 279.201, 202.723 286.355, 199.558 286.432, 205.968 286.432, 205.968 286.465, 208.716 286.576, 217.915 286.688, 227.113 "
         fill="none"
         stroke="rgb(0, 0, 0)"
         stroke-linecap="butt"
         stroke-linejoin="round"
         stroke-opacity="1.0"
         stroke-width="0.9000000953674316"
         id="path110" />
      <path
         d=" M 322.952, 189.747 323.205, 189.635 330.287, 186.502 "
         fill="none"
         stroke="rgb(0, 0, 0)"
         stroke-linecap="butt"
         stroke-linejoin="round"
         stroke-opacity="1.0"
         stroke-width="0.9000000953674316"
         id="path112" />
      <path
         d=" M 330.557, 208.831 330.543, 207.712 330.540, 207.457 330.540, 207.457 330.525, 206.198 330.509, 204.858 330.398, 195.660 330.287, 186.502 323.128, 183.290 "
         fill="none"
         stroke="rgb(0, 0, 0)"
         stroke-linecap="butt"
         stroke-linejoin="round"
         stroke-opacity="1.0"
         stroke-width="0.9000000953674316"
         id="path114" />
      <path
         d=" M 279.320, 230.373 279.209, 221.174 279.098, 211.976 278.987, 202.818 271.859, 199.620 264.700, 196.409 257.541, 193.198 250.382, 189.986 243.542, 186.918 243.254, 186.789 236.383, 183.707 236.095, 183.577 "
         fill="none"
         stroke="rgb(0, 0, 0)"
         stroke-linecap="butt"
         stroke-linejoin="round"
         stroke-opacity="1.0"
         stroke-width="0.9000000953674316"
         id="path116" />
      <path
         d=" M 330.543, 207.712 330.828, 207.586 330.828, 207.586 330.813, 206.328 330.717, 198.387 330.606, 189.189 330.495, 180.031 323.368, 176.834 316.208, 173.622 309.049, 170.411 301.890, 167.199 294.762, 164.002 287.603, 160.791 283.168, 162.752 "
         fill="none"
         stroke="rgb(0, 0, 0)"
         stroke-linecap="butt"
         stroke-linejoin="round"
         stroke-opacity="1.0"
         stroke-width="0.9000000953674316"
         id="path118" />
      <path
         d=" M 323.128, 183.290 330.495, 180.031 "
         fill="none"
         stroke="rgb(0, 0, 0)"
         stroke-linecap="butt"
         stroke-linejoin="round"
         stroke-opacity="1.0"
         stroke-width="0.9000000953674316"
         id="path120" />
      <path
         d=" M 250.797, 177.073 250.732, 171.657 250.721, 170.728 250.717, 170.399 250.686, 167.875 258.054, 164.615 265.421, 161.356 272.789, 158.096 279.948, 161.308 283.168, 162.752 287.076, 164.505 287.651, 164.763 294.235, 167.717 294.346, 176.915 286.979, 180.174 279.694, 183.397 279.611, 183.434 278.290, 184.019 272.244, 186.693 "
         fill="none"
         stroke="rgb(0, 0, 0)"
         stroke-linecap="butt"
         stroke-linejoin="round"
         stroke-opacity="1.0"
         stroke-width="0.9000000953674316"
         id="path122" />
      <path
         d=" M 272.133, 177.495 272.163, 180.019 272.178, 181.277 272.244, 186.693 265.084, 183.482 257.957, 180.284 250.797, 177.073 "
         fill="none"
         stroke="rgb(0, 0, 0)"
         stroke-linecap="butt"
         stroke-linejoin="round"
         stroke-opacity="1.0"
         stroke-width="0.9000000953674316"
         id="path124" />
      <path
         d=" M 250.686, 167.875 253.906, 169.319 257.845, 171.086 261.066, 172.530 264.973, 174.283 272.133, 177.495 279.500, 174.235 283.967, 172.259 286.868, 170.976 294.235, 167.717 "
         fill="none"
         stroke="rgb(0, 0, 0)"
         stroke-linecap="butt"
         stroke-linejoin="round"
         stroke-opacity="1.0"
         stroke-width="0.9000000953674316"
         id="path126" />
      <path
         d=" M 236.303, 177.107 243.462, 180.318 "
         fill="none"
         stroke="rgb(0, 0, 0)"
         stroke-linecap="butt"
         stroke-linejoin="round"
         stroke-opacity="1.0"
         stroke-width="0.9000000953674316"
         id="path128" />
      <path
         d=" M 250.721, 170.728 249.684, 171.187 243.638, 173.862 236.303, 177.107 236.380, 183.451 "
         fill="none"
         stroke="rgb(0, 0, 0)"
         stroke-linecap="butt"
         stroke-linejoin="round"
         stroke-opacity="1.0"
         stroke-width="0.9000000953674316"
         id="path130" />
      <path
         d=" M 337.652, 227.726 337.666, 228.951 337.666, 228.952 337.714, 232.883 "
         fill="none"
         stroke="rgb(0, 0, 0)"
         stroke-linecap="butt"
         stroke-linejoin="round"
         stroke-opacity="1.0"
         stroke-width="0.9000000953674316"
         id="path132" />
      <path
         d=" M 336.454, 211.476 337.988, 210.797 "
         fill="none"
         stroke="rgb(0, 0, 0)"
         stroke-linecap="butt"
         stroke-linejoin="round"
         stroke-opacity="1.0"
         stroke-width="0.9000000953674316"
         id="path134" />
      <path
         d=" M 340.900, 239.510 338.320, 238.352 "
         fill="none"
         stroke="rgb(0, 0, 0)"
         stroke-linecap="butt"
         stroke-linejoin="round"
         stroke-opacity="1.0"
         stroke-width="0.9000000953674316"
         id="path136" />
    </g>
  </g>
</svg>
