<?xml version="1.0" encoding="UTF-8" standalone="no"?>
<!-- Created with Inkscape (http://www.inkscape.org/) -->

<svg
   xmlns:dc="http://purl.org/dc/elements/1.1/"
   xmlns:cc="http://creativecommons.org/ns#"
   xmlns:rdf="http://www.w3.org/1999/02/22-rdf-syntax-ns#"
   xmlns:svg="http://www.w3.org/2000/svg"
   xmlns="http://www.w3.org/2000/svg"
   xmlns:sodipodi="http://sodipodi.sourceforge.net/DTD/sodipodi-0.dtd"
   xmlns:inkscape="http://www.inkscape.org/namespaces/inkscape"
   width="744.09448819"
   height="1052.3622047"
   id="svg2"
   version="1.1"
   inkscape:version="0.48.4 r9939"
   sodipodi:docname="tank-prototype3.svg">
  <defs
     id="defs4" />
  <sodipodi:namedview
     id="base"
     pagecolor="#ffffff"
     bordercolor="#666666"
     borderopacity="1.0"
     inkscape:pageopacity="0.0"
     inkscape:pageshadow="2"
     inkscape:zoom="0.98994949"
     inkscape:cx="-61.517636"
     inkscape:cy="879.22248"
     inkscape:document-units="px"
     inkscape:current-layer="g16975"
     showgrid="false"
     inkscape:window-width="1360"
     inkscape:window-height="705"
     inkscape:window-x="-8"
     inkscape:window-y="-8"
     inkscape:window-maximized="1" />
  <metadata
     id="metadata7">
    <rdf:RDF>
      <cc:Work
         rdf:about="">
        <dc:format>image/svg+xml</dc:format>
        <dc:type
           rdf:resource="http://purl.org/dc/dcmitype/StillImage" />
      </cc:Work>
    </rdf:RDF>
  </metadata>
  <g
     inkscape:label="Layer 1"
     inkscape:groupmode="layer"
     id="layer1">
    <g
       id="g16975"
       transform="matrix(0.06371625,0,0,0.06371625,-206.32482,-201.91981)">
      <g
         id="Layer_1_copy"
         style="opacity:0.66926066"
         transform="translate(2948.8297,3075.6611)">
        <polygon
           id="polygon16939"
           points="2669.9,778.7 2802,740.1 2817.2,735.7 2931.1,739 2981,750.7 2989.8,741.2 3159.9,689.4 3453.6,599.9 3109.8,424.8 2651.1,347.3 1280.8,710.2 1728.5,813.5 2145.8,998.4 2668.9,839 2663.2,833.3 2646.2,816.6 2661.6,792 "
           style="fill:#d5ff2e" />
        <polygon
           id="turret-side1"
           points="1813.3,2144.6 1834.9,2486.1 2392.5,2703.7 2598.8,2783.6 2600,2784.1 2145.8,998.4 1728.5,813.5 1280.8,710.2 1348.3,1915.3 1672.2,2075 1700.3,2088.9 1711.2,2094.3 1762.4,2119.5 1774.4,2125.4 "
           style="fill:#ff9f17"
           inkscape:label="#polygon16941" />
        <path
           id="turret-front"
           d="m 3724.9,1887.4 -42.7,-202.4 0.5,-0.8 11.8,4.3 0.1,-20.3 -5.4,-2 0.1,-12.6 154.1,55.4 -7.7,-6.4 6.3,-14.6 -152.5,-54.6 0,-3.3 -11.3,-8.6 -10,-3.6 -214.6,-1018 -293.7,89.5 -170.2,51.9 -8.8,9.5 -49.9,-11.6 -113.8,-3.4 -15.3,4.5 -132.1,38.6 -8.3,13.3 1.6,41.3 5.7,5.6 -523.2,159.4 454.4,1785.6 0.6,-0.3 103.5,-47.4 221,-101.3 455.9,-209 161.2,-73.2 256.2,-117.5 -54.3,-257.5 -19.2,-90.5 z m -225.1,-72.4 0.5,-0.4 25.4,10.2 -25.9,-9.8 z m 19,-14.5 0.4,-0.3 10.3,4.3 -10.7,-4 z m -519.5,-960.6 2.1,0.1 0.1,0.6 -2.2,-0.7 z m -279.7,1121.8 0,0.4 -77.1,-32.4 77.1,32 z m 76,74.5 3.7,-9.2 0.1,-0.2 0.7,-1.1 15.9,8.3 9.6,7.6 -11.5,-4.8 -4.8,7.8 -13.7,-8.4 z m 875.2,-360.6 -0.2,-0.2 -0.5,-0.5 16.7,6 -16,-5.3 z m -1108.3,362 12.6,5.4 44.8,25.2 -12.6,-5.4 -44.8,-25.2 z m 411,31.3 -10.5,-6 7.7,-16.1 9.4,6.5 -6.6,15.6 z"
           inkscape:connector-curvature="0"
           style="fill:#0083b9"
           inkscape:label="#path16943" />
        <path
           id="hull-side1"
           d="m 5107.9,4723.6 -23.8,18.2 -156.4,120 -18.8,2.1 -1.3,-2.7 7.6,-0.8 -97.2,-191 -135.2,-127.1 -60,-57.7 -19.8,-19.1 -59.8,-57.5 -88.2,-56.2 -38.9,-24.7 -85.9,-44.7 -613.4,-319.4 -130,-67.7 -254.5,-132.5 -198.5,-103.3 -235.5,-122.5 -179.4,-93.4 -161.3,-84 -42.1,-21.9 -1.9,-30.8 20.5,-10.2 -183.7,-98.7 -64.4,-34.6 -283,-151.9 -24.4,-9.1 -305.2,-159.7 -274.6,-103.3 -12.1,-4.6 -94.1,-47 -118.6,-59.2 -188.4,75.5 -20,-8.8 -53.2,-23.4 -26,-11.4 -95.3,37.6 -67.2,38.7 -32.8,94 5.6,133.4 41.3,153.8 71.7,151.8 87.2,124.5 536.9,501.4 2393.4,1553.8 105.3,32.5 610.7,-96.6 147.2,-26.8 113.1,-85.2 269.1,-214.6 53.6,-154.7 -18.3,-180.5 z m -802.4,400.9 6.5,27.9 8.5,16 -133.4,23.3 2.9,-76 -62.7,-132 -104.3,-97.3 -56.5,-14.9 -70.8,-63.9 -0.3,-49.8 -48.1,-64.6 -257.6,-247 471.3,272.8 5.6,39.1 18.8,42.4 -10.9,16.1 -2.9,18 18.4,18.2 24.8,13.8 29.7,67 31.8,41.6 -2.9,21.4 5.2,22.6 20,12 22.4,2.4 44.3,58 40.2,32.9 z m -2933.9,-1991.7 55.8,40.9 1.9,6.1 59.8,86.3 66.3,38.9 31.4,-14.5 0.9,0.7 3.5,-1.6 167.4,96.9 -96.7,23.7 -45.7,21.6 -25,16.4 -50.5,-50.5 -64.6,-9.5 -110.2,51.2 -74,-67.7 11.1,-5.1 57,-47.2 23,-99.2 -11.4,-87.4 z m -12.3,540.5 -6.8,3 6.9,-3.3 -0.1,0.3 z m -208.5,-437.2 -25.6,-35.6 13,6.2 12.6,29.4 z m -88.8,-65.9 0.5,0.2 -18.2,9.7 17.7,-9.9 z m 1244.2,1110.1 8.1,-4.5 -0.2,0.4 -7.9,4.1 z m -24.3,-45.2 0.6,0.4 -8.6,4.2 8,-4.6 z m -522.7,-517.6 1.2,2.4 -2.3,-2.5 1.1,0.1 z m -59.6,-172.9 -0.2,-5.3 0.3,2.2 -0.1,3.1 z m -21.5,15.7 -0.2,1.2 -1.9,-17 2.1,15.8 z m 402.1,210.1 -0.5,0.2 -14.9,-9.6 13.9,10.1 -105.6,54.5 -5.6,-57.5 -44.3,-92.1 141.6,85 15.4,9.4 z m -749.3,-133.9 0.4,0.3 -4.7,1.8 4.3,-2.1 z m 298.8,188.5 0.4,0.3 -7.4,3.2 7,-3.5 z m 29.7,37.7 -0.2,0.4 -6.8,3.2 7,-3.6 z m 278.9,165.1 3.4,-1.8 4.6,-2.4 0.5,0.3 -8.5,3.9 z m 38.8,35.3 -7.8,3.9 8,-4.3 -0.2,0.4 z M 4632,5114 l -152.3,26.7 41.3,-141.8 64.4,50.5 31.7,12.3 31.7,47.7 -16.8,4.6 z m -431.1,-251.7 98.7,-5 101.5,58.7 -20.8,162.9 -62.7,-49.9 -101.6,-133.1 -15.1,-33.6 z m 69.5,-221.2 0.2,0.5 -1.2,-0.7 1,0.2 z M 2610,4490.4 l 5.1,-3.3 -0.3,0.4 -1,0.6 -3.8,2.3 z m 141.6,-41.2 27.8,-24.6 -36.1,33 8.3,-8.4 z m 240.4,276.9 -0.3,0.4 -4.7,3 5,-3.4 z m 347.6,-10.4 -0.9,0.8 -2.6,-1.6 2.2,-2 2,2.3 -0.7,0.5 z m -4.5,-1.4 -0.4,-0.3 3,-1.9 0.2,0.2 -2.8,2 z m -237.4,-225.8 -0.5,0.3 -2.1,-1.5 2.6,1.2 z m 273.8,262.4 -0.3,5.9 -0.1,-6.3 0.4,0.4 z m -224.5,-366.1 -8.8,4.3 7.2,-4.4 1.6,0.1 z m 398.4,566.8 0.1,0.5 -5.5,3.3 5.4,-3.8 z m -320.3,-615.8 -152.1,-22.2 -3.1,-3.7 -34.4,-1.7 -8.8,-1.3 -1.3,0.8 -26.9,-1.4 -85,-37.9 -8,-16.6 -87.4,-84 -84,-18.7 -94.3,54.1 -1.7,-28.2 -55.8,-116.9 -84.3,-81.3 -52.5,-11 -44.6,-54.6 -25.5,-1.7 -245.1,-257.6 -77.2,-54.7 14.3,-7.2 7,-20.6 1235,714.9 -84.3,51.5 z m -1184.4,-171.3 10.1,10.9 -13.3,17.7 -2,-1.3 5.2,-27.3 z m 2643,1006.8 4.1,-3.1 0.1,0.2 -3.8,2.9 -0.3,0.2 -26.4,20.2 26.3,-20.4 z M 831.6,2756.5 l 12.7,-5.1 0.4,0.1 -13.1,5 z"
           inkscape:connector-curvature="0"
           style="fill:#ff5117"
           inkscape:label="#path16945" />
        <g
           id="hull-rear"
           inkscape:label="#g16947">
          <polygon
             id="polygon16949"
             points="3841.9,1688.1 3835.6,1702.6 3843.3,1709.1 3850.4,1694.1 "
             style="fill:#5cff62" />
          <polygon
             id="polygon16951"
             points="3694.6,1668.2 3694.5,1688.5 3702.4,1674.6 "
             style="fill:#5cff62" />
          <polygon
             id="polygon16953"
             points="2575.1,2043 2562.5,2037.6 2607.3,2062.8 2619.9,2068.2 "
             style="fill:#5cff62" />
          <polygon
             id="polygon16955"
             points="2809.3,2044.7 2814.1,2036.8 2808.8,2034.6 2807.9,2033.9 2825.6,2041.7 2816,2034 2800.1,2025.7 2799.4,2026.8 2799.3,2027 2795.6,2036.2 "
             style="fill:#5cff62" />
          <polygon
             id="polygon16957"
             points="2980.2,2053.2 2970.7,2046.7 2963.1,2062.8 2973.5,2068.9 "
             style="fill:#5cff62" />
          <polygon
             id="polygon16959"
             points="4960.9,2522.6 4960.6,2523.3 4962.5,2522.3 4962.6,2521.6 4962.7,2518.5 "
             style="fill:#5cff62" />
          <path
             id="path16961"
             d="m 5070,2395.3 -1345.1,-507.9 19.1,90.5 54.3,257.5 -256.3,117.5 -161.2,73.2 -455.9,209 -221,101.3 -103.5,47.4 -0.6,0.3 -1.2,-0.5 -206.3,-79.9 -557.6,-217.6 -21.6,-341.5 -38.9,-19.2 -12,-5.9 -51.2,-25.2 -10.9,-5.4 -28.1,-13.8 -136.2,51 -19,-9 -37.4,13.9 -32.3,23 -0.6,5.5 -11.5,4.3 -28.1,20.1 -5.2,51 1.6,2.3 -0.3,0.4 -0.4,0.5 -4.4,5.7 2.3,4 -88.6,54 -326.6,124.3 4.1,28.7 -79.9,46.1 -9.9,17.9 -129.9,50 -49.6,-12.8 -86.7,50.9 -39.5,75.9 12.5,18.1 -2.6,4.6 15.6,20.3 217.2,-85.1 10.5,3.2 38.9,17.1 26,11.4 53.2,23.4 20,8.8 188.4,-75.5 118.6,59.2 94.1,47 12.1,4.6 274.6,103.3 305.2,159.7 24.4,9.1 282.9,151.9 64.4,34.6 183.7,98.7 -20.5,10.2 73,24.4 663.3,341.3 95.5,49.1 151.8,-86.1 140.6,-79.7 41.1,-23.3 1,0.5 0.5,-104.1 0.3,-59.7 0.4,-92.1 -274.5,-133.6 -76.8,-170.6 143.3,-72.1 523.2,-263 16.1,36.5 101.8,230 341.2,-181.7 6.3,-131.9 0.4,-8.5 56.7,-29.4 46.3,18.7 30.3,12.3 -10.6,33.9 -4,-2.2 23.9,46.4 7,1.8 0.9,0.2 -7.2,-21.2 227.5,-121.1 31.3,20.8 4.9,3.3 39.6,26.3 -7.1,-7.6 20.9,-17.5 40,-28.6 0.6,-0.7 -0.5,-0.7 1,-17.6 34,-18.3 16.5,-8.8 63.9,-34.3 4.6,-2.5 -14.8,-5.1 2.7,-35.6 z m -1320.2,-18.9 -2.7,4.9 -6.8,10.1 9.5,-15 z m -438.5,488.5 0.2,15.2 -0.8,-13.7 0.6,-1.5 z m -2341.9,-214.5 0.7,-0.3 4.2,1.8 -4.9,-1.5 z"
             inkscape:connector-curvature="0"
             style="fill:#5cff62" />
          <polygon
             id="polygon16963"
             points="3698.3,3542.1 3698.9,3542.4 3699.7,3540.8 "
             style="fill:#5cff62" />
        </g>
        <path
           id="hull-front"
           d="m 6871.2,3311.3 -4.2,1 -58.1,-116.2 -96.2,-117.3 -129.3,-103.9 -90.2,-44.6 1.1,-6.5 -73.7,-27.8 -3.1,2.1 -343,-118.9 3.6,-30.7 -79.6,-27.4 -19.9,12.4 -388.8,-135.7 1.4,-16.4 -74.5,-25.6 -17.9,10.3 -314.5,-109.8 0.9,-13.6 -70.3,-24.2 -31.9,17.1 -4.6,2.5 -63.9,34.3 -16.5,8.8 -34,18.3 -1,17.6 0.5,0.7 0.2,0.2 -0.7,0.6 -0.2,3.1 0,0.7 -1.9,1 0.3,-0.8 1.8,-4.1 -0.1,-0.2 -40,28.6 -20.9,17.5 7.1,7.6 -39.6,-26.3 -4.9,-3.3 -31.3,-20.8 -227.5,121.1 7.2,21.2 -0.9,-0.2 -7,-1.8 -23.9,-46.4 -1.5,-0.2 0.5,-0.3 1,0.4 4,2.2 10.6,-33.9 -30.3,-12.3 -46.3,-18.7 -56.7,29.4 -0.4,8.5 -6.3,131.9 -341.2,181.7 -101.8,-230 -16.1,-36.5 -523.2,263 -143.3,72.1 76.8,170.6 274.5,133.6 -0.4,92.1 -0.3,59.7 -0.5,104.1 -1,-0.5 -41.1,23.3 -140.6,79.7 -151.8,86.1 -95.5,-49.1 -663.3,-341.3 -73,-24.4 1.9,30.8 42.1,21.9 161.3,84 179.4,93.4 235.5,122.6 198.5,103.3 254.5,132.5 130,67.7 613.5,319.3 85.9,44.7 38.9,24.7 88.2,56.2 59.8,57.5 19.8,19.1 60,57.7 135.2,127.1 97.2,191 -7.6,0.8 1.3,2.7 18.8,-2.1 156.4,-120 23.8,-18.2 160.1,-122.8 -19.4,-41.8 542.5,-413 60.7,-46.2 29,-22.1 75.5,-57.5 33.4,-12.8 -25.6,6.9 96.7,-73.6 58.1,-6 -37.4,-9.8 120.7,-91.9 7.7,-24.2 54,-43.3 17.5,11.9 50.3,9.2 1.1,-0.2 5.8,-1.4 7.6,-7 26.3,-15.6 22.6,-29.3 1.5,-1.4 0.2,-0.7 -1.1,-1.2 -3.4,-3.7 -8.6,-8 -28.1,-26.1 -29.7,-27.6 -34.7,-32.2 -19.2,-17.8 7.1,-22.3 11.5,-36.1 10.1,-31.6 1.3,-4.2 1.1,-3.5 -19,-12.6 -385.8,-256.4 8,-7.4 123.9,-28.5 0.4,-0.3 0,0.4 0,0.3 2.8,37.4 52.8,10.9 77.3,16 80.2,49.8 44.6,27.7 1.5,-1.1 13,-30.6 2,1.3 106.7,124.5 -23.1,10.9 -1.5,0.7 -4.6,2.5 26.2,58.2 14.9,33.1 7.2,15.9 9.7,-1.3 33.4,29 -3.4,-33.2 42.9,-6.3 26.1,-3.8 1.1,-0.2 13.3,-2 3.9,9.5 42.7,1.3 28.4,-21.8 26.1,-3.8 134.9,-103.5 101.1,-77.6 -20.1,-44.2 z m -447.9,128.3 3.5,-2.6 7.4,-3.5 -10.9,6.1 z m -463.8,-590.2 -2.2,0.4 60.5,-37.3 -58.3,36.9 z m -1217.9,440.3 -0.9,-3.2 1.2,3 -0.3,0.2 z m 5.6,-179.4 -25.6,-45.6 19.5,33.5 29.6,53.7 -23.5,-41.6 z m -217.5,-381.5 3,1.7 -10.8,-4.3 7.8,2.6 z m 25,-99.6 -1.4,0.1 0.4,-0.6 1,0.5 z m -855,911.6 -0.8,1.6 -0.6,-0.3 1.4,-1.3 z"
           inkscape:connector-curvature="0"
           style="fill:#d61e1e"
           inkscape:label="#path16965" />
        <polygon
           id="hull-side2"
           points="6470.5,3564.1 6473.9,3597.2 6440.5,3568.3 6430.8,3569.5 6423.7,3553.6 6408.7,3520.5 6382.5,3462.3 6384,3461.3 6387.1,3459.8 6388.6,3459.1 6411.7,3448.1 6305,3323.7 6303,3322.4 6290,3353 6288.5,3354.1 6243.9,3326.4 6163.7,3276.6 6086.5,3260.6 6033.7,3249.7 6030.8,3212.3 6030.3,3211.8 5906.5,3240.3 5898.4,3247.7 6284.2,3504.1 6303.2,3516.8 6302.1,3520.2 6300.7,3524.5 6290.7,3556 6279.2,3592.1 6272.1,3614.4 6291.3,3632.2 6326,3664.4 6355.7,3692 6383.8,3718.1 6392.5,3726.1 6395.9,3729.8 6396.9,3731 6396.8,3731.7 6395.3,3733.1 6372.7,3762.5 6346.4,3778 6338.8,3785 6333,3786.4 6331.9,3786.6 6281.6,3777.4 6264.2,3765.5 6210.1,3808.8 6202.4,3833 6081.7,3924.9 6119.1,3934.7 6060.9,3940.7 5964.2,4014.3 5989.8,4007.4 5956.5,4020.2 5880.9,4077.7 5851.9,4099.8 5791.1,4146.1 6276.6,4018.5 6424.8,3976 6543.5,3885.5 6730.3,3736.5 6794.2,3592.3 6790,3433.5 6655.1,3537 6628.9,3540.8 6600.5,3562.6 6557.9,3561.3 6553.9,3551.8 6540.6,3553.8 6539.4,3554 6513.4,3557.8 "
           style="fill:#d3e700"
           inkscape:label="#polygon16967" />
      </g>
    </g>
  </g>
</svg>
